<?xml version="1.0" encoding="utf-8"?>
<!-- Generator: Adobe Illustrator 17.0.0, SVG Export Plug-In . SVG Version: 6.00 Build 0)  -->
<!DOCTYPE svg PUBLIC "-//W3C//DTD SVG 1.1//EN" "http://www.w3.org/Graphics/SVG/1.1/DTD/svg11.dtd">
<svg version="1.1" id="Layer_1" xmlns="http://www.w3.org/2000/svg" xmlns:xlink="http://www.w3.org/1999/xlink" x="0px" y="0px"
	 width="612px" height="792px" viewBox="0 0 612 792" enable-background="new 0 0 612 792" xml:space="preserve">
<g>
	<g>
		<path fill="#FFFFFF" d="M208.898,448.852c-8.047,10.742-18.469,22.31-32.26,31.123c-13.549,8.539-28.676,15.424-46.58,15.424
			c-16.525,0-30.557-8.812-38.318-15.973c-11.51-10.742-17.602-26.719-19.395-41.318c-5.648-45.994,22.477-106.312,66.051-132.756
			c9.998-6.059,21.193-9.088,31.385-9.088c20.933,0,36.558,14.918,38.744,32.732c1.971,16.059-4.48,29.926-22.354,38.912
			c-9.141,4.596-13.656,4.379-15.08,2.19c-0.953-1.465-0.418-3.938,1.424-5.469c16.809-13.992,17.131-25.469,15.146-41.65
			c-1.281-10.41-8.158-17.074-15.871-17.074c-33.051,0-80.447,73.816-73.854,127.523c2.57,20.934,15.461,45.168,41.904,45.168
			c8.811,0,18.146-2.477,26.453-6.607c18.404-9.365,26.648-16.252,37.732-31.4c1.42-1.928,2.801-4.131,4.455-6.334
			c1.145-1.928,2.729-2.48,4.105-2.48c1.652,0,3.197,1.379,3.467,3.582c0.205,1.65-0.316,4.131-2.215,6.611
			C212.182,444.17,210.56,446.647,208.898,448.852z"/>
		<path fill="#FFFFFF" d="M258.859,475.844c-8.264,0-12.936-4.408-14.572-11.016c-5.457,7.16-12.693,11.016-20.406,11.016
			c-12.67,0-24.729-10.744-26.488-25.064c-3.078-25.064,18.547-57.562,51.049-57.562c13.768,0,25.187,5.506,26.539,16.525
			c1.693,13.768-10.088,16.525-14.496,16.525c-3.855,0-10.053-1.103-10.488-4.686c-0.475-3.853,8.332-1.65,7.254-10.467
			c-0.678-5.506-6.422-7.432-11.932-7.432c-19.832,0-30.771,27.541-28.678,44.619c0.949,7.709,4.924,15.424,12.088,15.424
			c5.783,0,14.133-8.264,17.326-20.385c2.018-8.264,9.879-13.769,15.662-13.769c3.029,0,5.125,1.375,5.498,4.404
			c0.135,1.102,0.031,2.48-0.316,4.131c-0.662,3.584-3.418,15.496-3.299,17.969c0.105,2.15,1.344,5.102,5.092,5.102
			c4.131,0,23.633-11.352,34.963-26.775c0.93-1.379,2.756-2.203,4.414-2.203c1.65,0,3.129,0.824,3.361,2.752
			c0.238,1.932-0.561,4.408-2.906,7.715C295.57,460.57,268.5,475.844,258.859,475.844z"/>
		<path fill="#FFFFFF" d="M532.291,466.479c0.978,7.986,4.654,13.221,8.053,16.25c1.24,1.102,1.957,2.48,2.062,3.305
			c0.269,2.205-1.42,4.133-4.176,4.133c-0.83,0-1.928,0-2.824-0.551c-14.203-5.785-20.074-15.422-21.74-24.516
			c-5.484,6.889-12.731,10.744-20.164,10.744c-12.67,0-25.043-11.016-26.799-25.342c-3.047-24.787,19.41-57.285,51.355-57.285
			c13.5,0,25.154,5.232,26.506,16.248c1.727,14.045-10.324,16.803-14.455,16.803c-4.133,0-10.332-1.103-10.766-4.686
			c-0.442-3.578,8.605-1.65,7.56-10.189c-0.672-5.51-6.455-7.709-11.969-7.709c-18.453,0-31.139,24.512-28.703,44.342
			c0.978,7.986,4.678,15.701,11.842,15.701c5.781,0,14.41-8.264,17.602-20.385c2.055-7.986,9.875-13.769,15.666-13.769
			c2.75,0,5.125,1.375,5.527,4.682c0.211,1.654-0.455,5.232-3.547,18.18C532.066,457.94,531.82,462.623,532.291,466.479z"/>
		<path fill="#FFFFFF" d="M360.85,461.459c4.408,0,18.773-5.484,30.1-20.908c1.203-1.377,2.758-2.203,4.408-2.203
			c1.928,0,3.406,0.826,3.684,3.029c0.201,1.654-0.875,4.131-3.221,7.438c-12.947,17.904-34.822,26.992-44.459,26.992
			c-9.914,0-15.338-6.059-16.451-15.148c-0.373-3.029-0.268-6.611,0.367-10.467c3.279-20.383,10.811-33.051,10.34-36.908
			c-0.135-1.102-0.756-1.652-1.584-1.652c-6.336,0-28.592,22.861-31.969,38.008l-2.637,12.123
			c-1.711,8.535-10.121,14.045-15.904,14.045c-2.756,0-4.852-1.379-5.225-4.408c-0.135-1.102-0.027-2.477,0.32-4.131
			c0,0,10.986-56.473,11.49-59.182c1.232-6.629,3.623-13.455,17.117-13.455c2.758,0,4.857,1.375,5.26,4.682
			c0.135,1.102,0.029,2.48-0.32,4.131l-3.766,17c11.842-15.695,30.25-27.266,41.27-27.266c4.684,0,8.291,2.477,8.904,7.438
			c0.336,2.754-0.471,7.434-2.301,12.668c-3.922,10.742-8.33,26.873-11.252,40.764C354.402,456.998,355.434,461.459,360.85,461.459z
			"/>
		<path fill="#FFFFFF" d="M452.994,437.006c-1.658,0-3.033,0-4.684-0.272c-12.395,17.898-25.342,30.297-35.254,35.803
			c-4.133,2.205-7.988,3.307-10.744,3.307c-2.203,0-4.684-0.549-5.783-2.48c-4.406-7.434-6.334-22.584-6.334-38.285
			c0-11.568,0.822-20.932,3.025-27.816c2.203-7.162,11.295-14.045,17.355-14.045c3.033,0,5.236,1.65,5.236,4.957
			c0,1.102-0.277,2.479-0.83,3.854c-4.131,12.119-6.334,23.414-6.334,34.707c0,6.334,1.375,16.525,2.756,21.758
			c0.277,1.102,0.545,2.205,1.652,2.205c1.926,0,14.873-12.672,24.234-28.096c-8.262-5.233-12.947-14.873-12.947-26.719
			c0-19.828,11.85-30.021,23.414-30.021c9.092,0,17.355,6.611,17.355,19.832c0,8.262-3.311,17.627-7.986,26.719
			c0,0,1.926,0.273,2.748,0.273c7.164,0,12.672-3.307,15.705-6.885c2.203-2.48,4.131-4.131,6.059-4.131
			c1.373,0,1.928,1.102,1.928,2.477c0,0.828-0.277,2.203-1.107,3.582C475.855,429.572,463.185,437.006,452.994,437.006z
			 M436.193,395.693c0,7.713,3.853,15.699,8.809,20.932c1.933-5.232,3.031-10.465,3.031-15.699c0-9.914-3.853-14.322-6.887-14.322
			C437.568,386.604,436.193,391.561,436.193,395.693z"/>
	</g>
</g>
</svg>
